<?xml version="1.0" encoding="utf-8"?>
<!-- Generator: Adobe Illustrator 22.0.1, SVG Export Plug-In . SVG Version: 6.00 Build 0)  -->
<svg version="1.1" id="Layer_1" xmlns="http://www.w3.org/2000/svg" xmlns:xlink="http://www.w3.org/1999/xlink" x="0px" y="0px"
	 viewBox="0 0 786 234" style="enable-background:new 0 0 786 234;" xml:space="preserve">
<style type="text/css">
	.st0{fill:#FFFFFF;}
	.st1{fill:none;stroke:#FFFFFF;stroke-miterlimit:10;}
</style>
<g>
	<g>
		<path class="st0" d="M451.9,74.2V56.6c0-0.1,0-0.2,0.1-0.2h2.2c0.1,0,0.1,0,0.1,0.2v17.6c0,0.1,0,0.1-0.1,0.1H452
			C451.9,74.3,451.9,74.3,451.9,74.2z"/>
		<path class="st0" d="M457.6,74.2V56.6c0-0.1,0.1-0.2,0.2-0.2h2.5c0.1,0,0.2,0.1,0.2,0.2l8.8,13.8V58l0.3-1.4c0-0.1,0-0.2,0.2-0.2
			h1.7c0.1,0,0.2,0,0.2,0.2v17.6c0,0.1-0.1,0.2-0.2,0.2h-2.5c-0.1,0-0.2-0.1-0.2-0.2l-8.8-13.8v12.4l-0.3,1.4c0,0.1,0,0.2-0.2,0.2
			h-1.7C457.6,74.3,457.6,74.3,457.6,74.2z"/>
		<path class="st0" d="M474.8,74.2V56.6c0-0.1,0-0.2,0.1-0.2h2.2c0.1,0,0.1,0,0.1,0.2v17.6c0,0.1,0,0.1-0.1,0.1h-2.2
			C474.8,74.3,474.8,74.3,474.8,74.2z"/>
		<path class="st0" d="M485.2,74.2V58.4H480c-0.1,0-0.1,0-0.1-0.1v-1.7c0-0.1,0-0.2,0.1-0.2h12.9c0.1,0,0.1,0,0.1,0.2v1.7
			c0,0.1,0,0.1-0.1,0.1h-5.2v15.7c0,0.1,0,0.1-0.1,0.1h-2.2C485.2,74.3,485.2,74.3,485.2,74.2z"/>
		<path class="st0" d="M495.6,74.2V56.6c0-0.1,0-0.2,0.1-0.2h2.2c0.1,0,0.1,0,0.1,0.2v17.6c0,0.1,0,0.1-0.1,0.1h-2.2
			C495.6,74.3,495.6,74.3,495.6,74.2z"/>
		<path class="st0" d="M516.3,73.3l-0.1,0.9c0,0.1-0.1,0.1-0.2,0.1h-1.7c-0.1,0-0.1-0.1-0.2-0.1l-1.4-3.9h-8.4l-1.5,3.9
			c0,0.1-0.1,0.1-0.2,0.1H501c-0.1,0-0.1,0-0.2-0.1l-0.1-0.9l6.5-16.8c0-0.1,0.1-0.1,0.2-0.1h2.5c0.1,0,0.1,0,0.2,0.1L516.3,73.3z
			 M511.9,68.4l-3.4-9.2l-3.5,9.2H511.9z"/>
		<path class="st0" d="M520.4,74.2V58.4h-5.2c-0.1,0-0.1,0-0.1-0.1v-1.7c0-0.1,0-0.2,0.1-0.2H528c0.1,0,0.1,0,0.1,0.2v1.7
			c0,0.1,0,0.1-0.1,0.1h-5.2v15.7c0,0.1,0,0.1-0.1,0.1h-2.2C520.4,74.3,520.4,74.3,520.4,74.2z"/>
		<path class="st0" d="M530.8,74.2V56.6c0-0.1,0-0.2,0.1-0.2h2.2c0.1,0,0.1,0,0.1,0.2v17.6c0,0.1,0,0.1-0.1,0.1h-2.2
			C530.8,74.3,530.8,74.3,530.8,74.2z"/>
		<path class="st0" d="M541.8,74.2l-6-16.7l0.1-0.9c0-0.1,0.1-0.2,0.2-0.2h1.9c0.1,0,0.1,0.1,0.2,0.2l5.1,14.7l5.2-14.7
			c0-0.1,0.1-0.2,0.2-0.2h1.8c0.1,0,0.1,0.1,0.2,0.2l0.1,0.8l-6.1,16.7c0,0.1-0.1,0.2-0.2,0.2h-2.5
			C541.8,74.3,541.8,74.3,541.8,74.2z"/>
		<path class="st0" d="M553.1,74.2V56.6c0-0.1,0.1-0.2,0.2-0.2h11.2c0.1,0,0.2,0,0.2,0.2v1.7c0,0.1,0,0.1-0.2,0.1h-9v6h8.2
			c0.1,0,0.2,0,0.2,0.1v1.7c0,0.1,0,0.2-0.2,0.2l-8.2,0v5.9h9.3c0.1,0,0.1,0,0.1,0.1v1.7c0,0.1,0,0.1-0.1,0.1h-11.5
			C553.1,74.3,553.1,74.3,553.1,74.2z"/>
		<path class="st0" d="M574.5,74.2V56.6c0-0.1,0-0.2,0.1-0.2H586c0.1,0,0.2,0,0.2,0.2v1.7c0,0.1,0,0.1-0.1,0.1H577v6.2h8.3
			c0.2,0,0.2,0,0.2,0.2v1.7c0,0.1,0,0.1-0.2,0.1H577v7.6c0,0.1,0,0.1-0.1,0.1h-2.2C574.5,74.3,574.5,74.3,574.5,74.2z"/>
		<path class="st0" d="M587.6,65.4c0-5.2,2.3-9.3,8.2-9.3s8.2,4.1,8.2,9.3c0,5.2-2.3,9.3-8.2,9.3S587.6,70.6,587.6,65.4z
			 M601.6,65.4c0-4.2-1.6-7.3-5.7-7.3c-4.2,0-5.8,3.1-5.8,7.3c0,4.2,1.6,7.2,5.8,7.2C600,72.7,601.6,69.6,601.6,65.4z"/>
		<path class="st0" d="M616,66.9l4.1,6.4l-0.2,0.8c0,0.1-0.1,0.1-0.1,0.1h-1.6c-0.1,0-0.1,0-0.2-0.1l-4.5-7.1h-4.2v7.1
			c0,0.1-0.1,0.2-0.2,0.2H607c-0.1,0-0.2-0.1-0.2-0.2V56.6c0-0.1,0-0.2,0.2-0.2h7.2c4.6,0,6.1,2.2,6.1,5.3
			C620.4,64.3,619.2,66.4,616,66.9z M609.3,65.1h5c2.9,0,3.9-1.2,3.9-3.3c0-2-0.9-3.3-3.9-3.3h-5V65.1z"/>
	</g>
	<g>
		<path class="st0" d="M467.4,102.2c0.1,0.1,0.1,0.1,0,0.3l-1.2,1.1c-0.1,0.1-0.2,0.1-0.3,0l-2.2-2.5c-1.1,0.5-2.4,0.8-4,0.9
			c-5.9,0.1-8.2-4-8.2-9.1c0-5.1,2.3-9.2,8.2-9.2s8.2,4.1,8.2,9.2c0,2.9-0.8,5.4-2.5,7L467.4,102.2z M462.2,99.4l-2.2-2.4
			c-0.1-0.1-0.1-0.2,0-0.3l1.2-1.1c0.1-0.1,0.2-0.1,0.3,0l2.3,2.6c1.1-1.2,1.6-3.1,1.6-5.4c0-4.1-1.6-7.1-5.7-7.1
			c-4.2,0-5.8,3.1-5.8,7.1c0,4,1.6,7,5.8,7C460.6,99.8,461.5,99.7,462.2,99.4z"/>
		<path class="st0" d="M470.5,95.5V84.1c0-0.1,0-0.2,0.1-0.2h2c0.1,0,0.1,0,0.2,0.2l0.2,1.4v10c0,3.1,1.8,4.5,4.5,4.5
			c2.7,0,4.4-1.4,4.4-4.5v-10l0.3-1.4c0-0.1,0.1-0.2,0.2-0.2h1.9c0.1,0,0.2,0,0.2,0.2v11.4c0,4.5-2.8,6.7-7,6.7
			S470.5,100.1,470.5,95.5z"/>
		<path class="st0" d="M502.1,100.9l-0.1,0.9c0,0.1-0.1,0.1-0.2,0.1h-1.7c-0.1,0-0.1-0.1-0.2-0.1l-1.4-3.9H490l-1.5,3.9
			c0,0.1-0.1,0.1-0.2,0.1h-1.6c-0.1,0-0.1,0-0.2-0.1l-0.1-0.9l6.5-16.8c0-0.1,0.1-0.1,0.2-0.1h2.5c0.1,0,0.1,0,0.2,0.1L502.1,100.9z
			 M497.7,95.9l-3.4-9.2l-3.5,9.2H497.7z"/>
		<path class="st0" d="M504.7,101.7V84.1c0-0.1,0.1-0.2,0.2-0.2h2.5c0.1,0,0.2,0.1,0.2,0.2l8.8,13.8V85.5l0.3-1.4
			c0-0.1,0-0.2,0.2-0.2h1.7c0.1,0,0.2,0,0.2,0.2v17.6c0,0.1-0.1,0.2-0.2,0.2H516c-0.1,0-0.2-0.1-0.2-0.2L507,87.9v12.4l-0.3,1.4
			c0,0.1,0,0.2-0.2,0.2h-1.7C504.8,101.9,504.7,101.8,504.7,101.7z"/>
		<path class="st0" d="M526.6,101.7V86h-5.2c-0.1,0-0.1,0-0.1-0.1v-1.7c0-0.1,0-0.2,0.1-0.2h12.9c0.1,0,0.1,0,0.1,0.2v1.7
			c0,0.1,0,0.1-0.1,0.1h-5.2v15.7c0,0.1,0,0.1-0.1,0.1h-2.2C526.6,101.9,526.6,101.9,526.6,101.7z"/>
		<path class="st0" d="M537.1,101.7V84.1c0-0.1,0-0.2,0.1-0.2h2.2c0.1,0,0.1,0,0.1,0.2v17.6c0,0.1,0,0.1-0.1,0.1h-2.2
			C537.1,101.9,537.1,101.8,537.1,101.7z"/>
		<path class="st0" d="M547.5,101.7V86h-5.2c-0.1,0-0.1,0-0.1-0.1v-1.7c0-0.1,0-0.2,0.1-0.2h12.9c0.1,0,0.1,0,0.1,0.2v1.7
			c0,0.1,0,0.1-0.1,0.1h-5.2v15.7c0,0.1,0,0.1-0.1,0.1h-2.2C547.5,101.9,547.5,101.9,547.5,101.7z"/>
		<path class="st0" d="M569.6,100.9l-0.1,0.9c0,0.1-0.1,0.1-0.2,0.1h-1.7c-0.1,0-0.1-0.1-0.2-0.1l-1.4-3.9h-8.4l-1.5,3.9
			c0,0.1-0.1,0.1-0.2,0.1h-1.6c-0.1,0-0.1,0-0.2-0.1l-0.1-0.9l6.5-16.8c0-0.1,0.1-0.1,0.2-0.1h2.5c0.1,0,0.1,0,0.2,0.1L569.6,100.9z
			 M565.2,95.9l-3.4-9.2l-3.5,9.2H565.2z"/>
		<path class="st0" d="M573.6,101.7V86h-5.2c-0.1,0-0.1,0-0.1-0.1v-1.7c0-0.1,0-0.2,0.1-0.2h12.9c0.1,0,0.1,0,0.1,0.2v1.7
			c0,0.1,0,0.1-0.1,0.1h-5.2v15.7c0,0.1,0,0.1-0.1,0.1h-2.2C573.7,101.9,573.6,101.9,573.6,101.7z"/>
		<path class="st0" d="M584.1,101.7V84.1c0-0.1,0-0.2,0.1-0.2h2.2c0.1,0,0.1,0,0.1,0.2v17.6c0,0.1,0,0.1-0.1,0.1h-2.2
			C584.1,101.9,584.1,101.8,584.1,101.7z"/>
		<path class="st0" d="M595.1,101.7l-6-16.7l0.1-0.9c0-0.1,0.1-0.2,0.2-0.2h1.9c0.1,0,0.1,0.1,0.2,0.2l5.1,14.7l5.2-14.7
			c0-0.1,0.1-0.2,0.2-0.2h1.8c0.1,0,0.1,0.1,0.2,0.2L604,85l-6.1,16.7c0,0.1-0.1,0.2-0.2,0.2h-2.5
			C595.1,101.9,595.1,101.8,595.1,101.7z"/>
		<path class="st0" d="M606.4,101.7V84.1c0-0.1,0.1-0.2,0.2-0.2h11.2c0.1,0,0.2,0,0.2,0.2v1.7c0,0.1,0,0.1-0.2,0.1h-9v6h8.2
			c0.1,0,0.2,0,0.2,0.1v1.7c0,0.1,0,0.2-0.2,0.2l-8.2,0v5.9h9.3c0.1,0,0.1,0,0.1,0.1v1.7c0,0.1,0,0.1-0.1,0.1h-11.5
			C606.4,101.9,606.4,101.8,606.4,101.7z"/>
		<path class="st0" d="M627.8,101.7V84.1c0-0.1,0-0.2,0.2-0.2h7c4.6,0,6.1,2.3,6.1,5.3c0,3-1.5,5.3-6.1,5.3h-4.7v7.1
			c0,0.1-0.1,0.2-0.2,0.2H628C627.9,101.9,627.8,101.8,627.8,101.7z M634.9,92.6c2.9,0,3.9-1.2,3.9-3.3c0-2-0.9-3.3-3.9-3.3h-4.7
			v6.7H634.9z"/>
		<path class="st0" d="M653.4,94.5l4.1,6.4l-0.2,0.8c0,0.1-0.1,0.1-0.1,0.1h-1.6c-0.1,0-0.1,0-0.2-0.1l-4.5-7.1h-4.2v7.1
			c0,0.1-0.1,0.2-0.2,0.2h-2.1c-0.1,0-0.2-0.1-0.2-0.2V84.1c0-0.1,0-0.2,0.2-0.2h7.2c4.6,0,6.1,2.2,6.1,5.3
			C657.8,91.8,656.6,93.9,653.4,94.5z M646.7,92.6h5c2.9,0,3.9-1.2,3.9-3.3c0-2-0.9-3.3-3.9-3.3h-5V92.6z"/>
		<path class="st0" d="M660.6,101.7V84.1c0-0.1,0.1-0.2,0.2-0.2H672c0.1,0,0.2,0,0.2,0.2v1.7c0,0.1,0,0.1-0.2,0.1h-9v6h8.2
			c0.1,0,0.2,0,0.2,0.1v1.7c0,0.1,0,0.2-0.2,0.2l-8.2,0v5.9h9.3c0.1,0,0.1,0,0.1,0.1v1.7c0,0.1,0,0.1-0.1,0.1h-11.5
			C660.7,101.9,660.6,101.8,660.6,101.7z"/>
		<path class="st0" d="M675.3,101.7V84.1c0-0.1,0.1-0.2,0.2-0.2h6c5.9,0,8.3,3.8,8.3,9c0,5.1-2.4,8.9-8.3,8.9h-6
			C675.4,101.9,675.3,101.8,675.3,101.7z M681.4,99.9c4.2,0,5.9-2.8,5.9-6.9c0-4.1-1.7-7-5.9-7h-3.8v13.9H681.4z"/>
		<path class="st0" d="M692.6,101.7V84.1c0-0.1,0-0.2,0.1-0.2h2.2c0.1,0,0.1,0,0.1,0.2v17.6c0,0.1,0,0.1-0.1,0.1h-2.2
			C692.6,101.9,692.6,101.8,692.6,101.7z"/>
		<path class="st0" d="M697.9,92.9c0-5.6,2.8-9.3,8.2-9.3c4.6,0,6.5,2.4,7.2,4.1l-0.3,0.9c0,0.1-0.1,0.2-0.2,0.2h-1.6
			c-0.1,0-0.1-0.1-0.2-0.1c-0.4-1.1-1.6-2.8-4.9-2.8c-4.1,0-5.8,2.7-5.8,7.2s1.7,7.1,5.8,7.1c3.3,0,4.4-1.8,4.9-2.8
			c0-0.1,0.1-0.1,0.2-0.1h1.6c0.1,0,0.1,0,0.2,0.1l0.3,0.9c-0.6,1.8-2.5,4.1-7.2,4.1C700.7,102.2,697.9,98.5,697.9,92.9z"/>
		<path class="st0" d="M720,101.7V86h-5.2c-0.1,0-0.1,0-0.1-0.1v-1.7c0-0.1,0-0.2,0.1-0.2h12.9c0.1,0,0.1,0,0.1,0.2v1.7
			c0,0.1,0,0.1-0.1,0.1h-5.2v15.7c0,0.1,0,0.1-0.1,0.1h-2.2C720,101.9,720,101.9,720,101.7z"/>
		<path class="st0" d="M730.4,101.7V84.1c0-0.1,0-0.2,0.1-0.2h2.2c0.1,0,0.1,0,0.1,0.2v17.6c0,0.1,0,0.1-0.1,0.1h-2.2
			C730.5,101.9,730.4,101.8,730.4,101.7z"/>
		<path class="st0" d="M735.7,93c0-5.2,2.3-9.3,8.2-9.3s8.2,4.1,8.2,9.3c0,5.2-2.3,9.3-8.2,9.3S735.7,98.2,735.7,93z M749.6,93
			c0-4.2-1.6-7.3-5.7-7.3c-4.2,0-5.8,3.1-5.8,7.3c0,4.2,1.6,7.2,5.8,7.2C748,100.2,749.6,97.1,749.6,93z"/>
		<path class="st0" d="M754.9,101.7V84.1c0-0.1,0.1-0.2,0.2-0.2h2.5c0.1,0,0.2,0.1,0.2,0.2l8.8,13.8V85.5l0.3-1.4
			c0-0.1,0-0.2,0.2-0.2h1.7c0.1,0,0.2,0,0.2,0.2v17.6c0,0.1-0.1,0.2-0.2,0.2h-2.5c-0.1,0-0.2-0.1-0.2-0.2l-8.8-13.8v12.4l-0.3,1.4
			c0,0.1,0,0.2-0.2,0.2H755C754.9,101.9,754.9,101.8,754.9,101.7z"/>
	</g>
</g>
<line class="st1" x1="429.3" y1="39" x2="429.3" y2="125"/>
<g>
	<g>
		<path class="st0" d="M33.3,101.4h6.4l7.6-23l7.6,23h6.4l14.9-45.1h-3.8L60.5,93L47.9,56.3h-7.8l5.4,16.4L38.8,93L26.3,56.3H14.7
			v1.5c4.6,0.8,4.5,1,5.8,4.7L33.3,101.4z"/>
		<path class="st0" d="M168.2,98.3c-4.1,0-4.1,0-4.1-5V56.3h-7.9v45.1h24.2v-3.2H168.2z"/>
		<path class="st0" d="M138.1,80.6c6.5-0.9,10.2-4.6,10.2-12.2c0-12-12.6-12-17.2-12h-13.4v45.1h7.9v-42h5.1c5.1,0,8.9,2,8.9,9.2
			c0,8.2-5.5,9.8-9.5,9.8h-1l13,22.9h8.7L138.1,80.6z"/>
		<path class="st0" d="M197.2,98.3c-4.2,0-4.2-1.8-4.2-4.4V59.5h5c11.4,0,12.7,7.6,12.7,19.4C210.7,92.5,208.3,98.3,197.2,98.3
			 M199.1,56.3h-14.1v45.1h12.1c11.9,0,22-1.5,22-22.7C219.2,59.8,210.7,56.3,199.1,56.3"/>
		<path class="st0" d="M94,99.7c-9.1,0-9.8-11.5-9.8-20.8c0-9.3,0.7-20.8,9.8-20.8c8.9,0,9.5,11.8,9.5,20.8
			C103.4,87.9,102.9,99.7,94,99.7 M94,54.8c-14.4,0-18.4,9.4-18.4,24.3c0,14.9,4,23.9,18.4,23.9c13.8,0,18-9,18-23.9
			C112,64.1,107.8,54.8,94,54.8"/>
		<path class="st0" d="M293.4,56.3v29.3c0,6.8-0.3,14.2-10.3,14.2c-8.7,0-8.7-7.4-8.7-14.2V56.3h-7.9v31.1
			c0,12.2,5.9,15.6,16.6,15.6c14.4,0,14.7-9.9,14.7-18.9V56.3H293.4z"/>
	</g>
	<polygon class="st0" points="378.4,56.3 378.4,59.5 390.9,59.5 390.9,101.4 398.9,101.4 398.9,59.5 411.3,59.5 411.3,56.3 	"/>
	<polygon class="st0" points="371.4,56.3 371.4,92.8 371.3,92.8 352.1,56.3 344.1,56.3 344.1,101.4 347.9,101.4 347.9,63.3 
		348.1,63.3 368.1,101.4 375.2,101.4 375.2,56.3 	"/>
	<g>
		<path class="st0" d="M324.3,93l-6.6-19.3h13L324.3,93z M336.4,56.3l-4.7,14.2h-15.1l-4.9-14.2h-11.6v1.5c4.6,0.8,4.5,1,5.8,4.7
			l12.8,38.9h6.4l14.9-45.1H336.4z"/>
		<path class="st0" d="M260.7,79.1c0-14.9-4.2-24.3-18-24.3c-14.4,0-18.4,9.4-18.4,24.3c0,14.9,4,23.9,18.4,23.9h20v-1.5
			c-4.6-0.8-8-1.6-5.9-4.7C259.7,92.7,260.7,86.6,260.7,79.1 M242.7,99.7c-9.1,0-9.8-11.5-9.8-20.8c0-9.3,0.7-20.8,9.8-20.8
			c8.9,0,9.5,11.8,9.5,20.8C252.1,87.9,251.6,99.7,242.7,99.7"/>
		<path class="st0" d="M407.1,96.6v1.1h0.9c0.4,0,0.7-0.2,0.7-0.6c0-0.4-0.2-0.6-0.6-0.6H407.1z M407.8,98.4h-0.7v1.8h-0.7v-4.2h1.7
			c0.7,0,1.2,0.5,1.2,1.2c0,0.5-0.3,1-0.8,1.2l1,1.9h-0.8L407.8,98.4z M407.7,95c-1.6,0-2.9,1.3-2.9,3c0,1.7,1.3,3,2.9,3
			c1.6,0,2.9-1.3,2.9-3C410.6,96.3,409.4,95,407.7,95 M407.7,101.6c-2,0-3.6-1.5-3.6-3.6c0-2.1,1.6-3.7,3.6-3.7c2,0,3.6,1.6,3.6,3.7
			C411.3,100.1,409.8,101.6,407.7,101.6"/>
	</g>
</g>
<g>
	<path class="st0" d="M184.8,188.6h-2c-0.1,0-0.2,0.1-0.3,0.2c-0.2,0.2-0.8,1.1-2.6,1.1c-2.1,0-3-1.1-3.2-3.2h8
		c0.2,0,0.2-0.1,0.3-0.2l0.4-1.3c0-3.1-1.7-6.4-6.1-6.4c-4.2,0-6.1,3.2-6.1,7.1c0,3.9,2,7.1,6.8,7.1c3.9,0,5.1-2.2,5.4-2.9l-0.4-1.3
		C185,188.6,184.9,188.6,184.8,188.6 M179.3,181.8c1.5,0,2.3,1,2.4,2.4h-4.8C177,182.8,177.8,181.8,179.3,181.8 M172.3,183.9v8.4
		c0,0.2-0.1,0.3-0.3,0.3h-3c-0.2,0-0.3-0.1-0.3-0.3v-8.2c0-1.3-0.5-2.3-2-2.3c-1.7,0-2.9,0.9-2.9,3.2v2.5h0v4.8
		c0,0.2-0.1,0.3-0.3,0.3h-3c-0.2,0-0.3-0.1-0.3-0.3v-12.9c0-0.2,0.1-0.3,0.3-0.3h2.4c0.2,0,0.2,0.1,0.3,0.2l0.4,1.3
		c0.7-1.1,2-1.9,3.9-1.9C170.4,178.8,172.3,180.5,172.3,183.9z M155.4,175.4c0-0.2,0.1-0.3,0.3-0.3h3c0.2,0,0.3,0.1,0.3,0.3v2.5
		c0,0.2-0.1,0.3-0.3,0.3h-3c-0.2,0-0.3-0.1-0.3-0.3V175.4z M155.4,192.3c0,0.2,0.1,0.3,0.3,0.3h3c0.2,0,0.3-0.1,0.3-0.3v-12.9
		c0-0.2-0.1-0.3-0.3-0.3h-3c-0.2,0-0.3,0.1-0.3,0.3V192.3z M146,185.9c0,2.9,1.1,4,3.2,4c1.5,0,2.2-0.9,2.3-1.1
		c0.1-0.1,0.2-0.2,0.3-0.2h2c0.2,0,0.2,0.1,0.3,0.2l0.4,1.3c-0.4,0.8-1.5,2.9-5.2,2.9c-4.7,0-6.8-2.8-6.8-7.1c0-4.3,2.1-7.1,6.8-7.1
		c3.6,0,4.8,2,5.2,2.9l-0.4,1.3c-0.1,0.2-0.1,0.2-0.3,0.2h-2c-0.1,0-0.2-0.1-0.3-0.2c-0.2-0.2-0.8-1.1-2.3-1.1
		C147.1,181.8,146,183,146,185.9 M138,175.4c0-0.2,0.1-0.3,0.3-0.3h3c0.2,0,0.3,0.1,0.3,0.3v2.5c0,0.2-0.1,0.3-0.3,0.3h-3
		c-0.2,0-0.3-0.1-0.3-0.3V175.4z M138,192.3c0,0.2,0.1,0.3,0.3,0.3h3c0.2,0,0.3-0.1,0.3-0.3v-12.9c0-0.2-0.1-0.3-0.3-0.3h-3
		c-0.2,0-0.3,0.1-0.3,0.3V192.3z M136.4,175.1h-3c-0.2,0-0.3,0.1-0.3,0.3v5c-0.9-0.9-2.2-1.5-3.8-1.5c-3.9,0-5.9,3.1-5.9,7.1
		c0,4,1.9,7.1,5.9,7.1c1.7,0,3-0.7,4-1.8l0.4,1.2c0.1,0.2,0.1,0.2,0.3,0.2h2.4c0.2,0,0.3-0.1,0.3-0.3v-16.9
		C136.7,175.2,136.6,175.1,136.4,175.1z M130.1,189.9c-2.1,0-3.1-1.5-3.1-4c0-2.5,0.9-4,3.1-4c2,0,3.1,1.5,3.1,4v0
		C133.2,188.4,132.1,189.9,130.1,189.9z M122.1,188.6h-2c-0.1,0-0.2,0.1-0.3,0.2c-0.2,0.2-0.8,1.1-2.6,1.1c-2.1,0-3-1.1-3.2-3.2h8
		c0.2,0,0.2-0.1,0.3-0.2l0.4-1.3c0-3.1-1.7-6.4-6.1-6.4c-4.2,0-6.1,3.2-6.1,7.1c0,3.9,2,7.1,6.8,7.1c3.9,0,5.1-2.2,5.4-2.9l-0.4-1.3
		C122.3,188.6,122.2,188.6,122.1,188.6 M116.6,181.8c1.5,0,2.3,1,2.4,2.4h-4.8C114.4,182.8,115.1,181.8,116.6,181.8 M109.4,175.4
		v16.9c0,0.2-0.1,0.3-0.3,0.3h-2.7c-0.2,0-0.2-0.1-0.3-0.2l-0.4-1.3v-8.5l-4,9.7c-0.1,0.2-0.1,0.2-0.3,0.2h-1.3l0,0l0,0h-1.3
		c-0.2,0-0.3-0.1-0.3-0.2l-4-9.7v8.5l-0.4,1.3c-0.1,0.2-0.1,0.2-0.3,0.2h-2.7c-0.2,0-0.3-0.1-0.3-0.3v-16.9c0-0.2,0.1-0.3,0.3-0.3
		h2.3l0,0h1.3c0.2,0,0.3,0.1,0.3,0.2l5.1,12.3l5.1-12.3c0.1-0.2,0.1-0.2,0.3-0.2h1.3v0h2.3C109.3,175.1,109.4,175.2,109.4,175.4z"/>
	<path class="st0" d="M216.3,171.8c0,0.2-0.1,0.3-0.3,0.3h-2.6c-0.2,0-0.2-0.1-0.3-0.2l-0.4-1.3v-15.7c0-0.2,0.1-0.3,0.3-0.3h3
		c0.2,0,0.3,0.1,0.3,0.3V171.8z M211.5,154.8c0-0.2-0.1-0.3-0.3-0.3h-3c-0.2,0-0.3,0.1-0.3,0.3v15.7l0.4,1.3
		c0.1,0.2,0.1,0.2,0.3,0.2h2.6c0.2,0,0.3-0.1,0.3-0.3V154.8z M206.6,168.3l0.4,1.3c-0.3,0.7-1.5,2.9-5.4,2.9c-4.8,0-6.8-3.1-6.8-7.1
		c0-3.9,1.9-7.1,6.1-7.1c4.3,0,6.1,3.4,6.1,6.4l-0.4,1.3c-0.1,0.2-0.1,0.2-0.3,0.2h-8c0.2,2.1,1.1,3.2,3.2,3.2
		c1.7,0,2.4-0.9,2.6-1.1c0.1-0.1,0.2-0.2,0.3-0.2h2C206.5,168,206.6,168.1,206.6,168.3z M198.5,163.6h4.8c-0.1-1.4-0.9-2.4-2.4-2.4
		C199.4,161.3,198.6,162.3,198.5,163.6z M189.1,158.3c-1.9,0-3.2,0.8-3.9,1.9l-0.4-1.3c-0.1-0.2-0.1-0.2-0.3-0.2h-2.4
		c-0.2,0-0.3,0.1-0.3,0.3v12.9c0,0.2,0.1,0.3,0.3,0.3h3c0.2,0,0.3-0.1,0.3-0.3V167v-2.5c0-2.3,1.2-3.2,2.9-3.2c1.5,0,2,1,2,2.3v8.2
		c0,0.2,0.1,0.3,0.3,0.3h3c0.2,0,0.3-0.1,0.3-0.3v-8.4C193.8,159.9,191.9,158.3,189.1,158.3z M180.5,158.6h-1.2
		c-1.6,0-2.8,0.5-3.6,1.5l-0.4-1.3c-0.1-0.2-0.1-0.2-0.3-0.2h-2.4c-0.2,0-0.3,0.1-0.3,0.3v12.9c0,0.2,0.1,0.3,0.3,0.3h3
		c0.2,0,0.3-0.1,0.3-0.3v-4.4V165c0-2.3,1.3-3.2,3-3.2h1.6c0.2,0,0.3-0.1,0.3-0.3v-2.7C180.7,158.7,180.6,158.6,180.5,158.6z
		 M171.4,165.3c0,4-1.6,7.1-6.3,7.1c-4.7,0-6.3-3.1-6.3-7.1c0-4,1.6-7.1,6.3-7.1C169.8,158.3,171.4,161.4,171.4,165.3z M167.9,165.3
		c0-2.5-0.8-4-2.8-4c-2,0-2.8,1.5-2.8,4c0,2.5,0.8,4,2.8,4C167.1,169.4,167.9,167.9,167.9,165.3z M142.4,163.3
		c0,5.7,3.1,9.1,8.3,9.1c4.9,0,6.8-2.5,7.4-4.3l-0.4-1.3c-0.1-0.2-0.1-0.2-0.3-0.2h-2.4c-0.2,0-0.2,0.1-0.3,0.2
		c-0.3,0.6-1,2.3-3.9,2.3c-3.2,0-4.7-1.8-4.7-5.8c0-4,1.5-5.8,4.7-5.8c2.9,0,3.6,1.7,3.9,2.3c0.1,0.1,0.1,0.2,0.3,0.2h2.4
		c0.2,0,0.2-0.1,0.3-0.2l0.4-1.3c-0.6-1.8-2.4-4.3-7.4-4.3C145.6,154.2,142.4,157.6,142.4,163.3 M137.2,154.8c0-0.2-0.1-0.3-0.3-0.3
		h-3c-0.2,0-0.3,0.1-0.3,0.3v15.7l0.4,1.3c0.1,0.2,0.1,0.2,0.3,0.2h2.6c0.2,0,0.3-0.1,0.3-0.3V154.8z M132.4,154.8
		c0-0.2-0.1-0.3-0.3-0.3h-3c-0.2,0-0.3,0.1-0.3,0.3v15.7l0.4,1.3c0.1,0.2,0.1,0.2,0.3,0.2h2.6c0.2,0,0.3-0.1,0.3-0.3V154.8z
		 M124.1,171.8c0,0.2,0.1,0.3,0.3,0.3h3c0.2,0,0.3-0.1,0.3-0.3v-12.9c0-0.2-0.1-0.3-0.3-0.3h-3c-0.2,0-0.3,0.1-0.3,0.3V171.8z
		 M124.1,154.8c0-0.2,0.1-0.3,0.3-0.3h3c0.2,0,0.3,0.1,0.3,0.3v2.5c0,0.2-0.1,0.3-0.3,0.3h-3c-0.2,0-0.3-0.1-0.3-0.3V154.8z
		 M122.6,168.3l0.4,1.3c-0.3,0.7-1.5,2.9-5.4,2.9c-4.8,0-6.8-3.1-6.8-7.1c0-3.9,1.9-7.1,6.1-7.1c4.3,0,6.1,3.4,6.1,6.4l-0.4,1.3
		c-0.1,0.2-0.1,0.2-0.3,0.2h-8c0.2,2.1,1.1,3.2,3.2,3.2c1.7,0,2.4-0.9,2.6-1.1c0.1-0.1,0.2-0.2,0.3-0.2h2
		C122.5,168,122.6,168.1,122.6,168.3z M114.5,163.6h4.8c-0.1-1.4-0.9-2.4-2.4-2.4C115.4,161.3,114.6,162.3,114.5,163.6z
		 M111.5,154.8c0-0.2-0.1-0.2-0.3-0.2h-2.8c-0.2,0-0.2,0.1-0.3,0.2l-2.7,11.5l-3.4-11.5c0-0.1-0.1-0.2-0.3-0.2h-1.8h-1.8
		c-0.2,0-0.2,0.1-0.3,0.2l-3.4,11.5L92,154.8c0-0.1-0.1-0.2-0.3-0.2H89c-0.2,0-0.3,0.1-0.3,0.2l-0.2,1.3l4,15.7
		c0,0.1,0.1,0.2,0.3,0.2h3.6c0.2,0,0.2-0.1,0.3-0.2l3.5-11.9l3.5,11.9c0,0.1,0.1,0.2,0.3,0.2h3.6c0.2,0,0.2-0.1,0.3-0.2l4-15.7
		L111.5,154.8z"/>
	<path class="st0" d="M59.6,180l0-0.5c0.1,0,0.6,0,1,0l0.2,0c0.2,0,0.4,0,0.6-0.1l0.4,0c0.1,0,0.2,0,0.2,0l0,0.5c-0.1,0-0.1,0-0.2,0
		l-0.4,0c-0.3,0-0.5,0.1-0.7,0.1l-0.2,0C60.2,180,59.7,180,59.6,180 M59.6,178.6c0.1,0,0.6,0,1,0l0.2,0c0.2,0,0.4,0,0.6,0
		c0.1,0,0.3,0,0.4,0c0.1,0,0.1,0,0.2,0l0-0.5c-0.1,0-0.2,0-0.2,0c-0.1,0-0.3,0-0.4,0c-0.2,0-0.4,0-0.6,0l-0.2,0c-0.4,0-0.8,0-1,0
		L59.6,178.6 M59.6,177.1c0.1,0,0.4,0,0.6,0l0.5,0c0.2,0,0.4,0,0.7-0.1l0.4,0c0.1,0,0.1,0,0.2,0l0-0.5c-0.1,0-0.2,0-0.3,0l-0.4,0
		c-0.2,0-0.4,0-0.6,0.1l-0.6,0c-0.3,0-0.5,0-0.6,0L59.6,177.1 M60.7,175.6c0.2,0,0.4,0,0.7-0.1l0.4,0c0.1,0,0.1,0,0.2,0l0-0.5
		c-0.1,0-0.2,0-0.2,0l-0.4,0c-0.2,0-0.4,0-0.6,0.1l-1.2,0l0,0.5L60.7,175.6z M66.8,180l0-0.5c-0.1,0-0.6,0-1,0l-0.2,0
		c-0.2,0-0.4,0-0.6-0.1l-0.4,0c-0.1,0-0.2,0-0.2,0l0,0.5c0.1,0,0.1,0,0.2,0l0.4,0c0.3,0,0.5,0.1,0.7,0.1l0.2,0
		C66.2,180,66.7,180,66.8,180 M66.8,178.6l0-0.5c-0.1,0-0.6,0-1,0l-0.2,0c-0.2,0-0.4,0-0.6,0c-0.1,0-0.3,0-0.4,0c-0.1,0-0.2,0-0.2,0
		l0,0.5c0.1,0,0.1,0,0.2,0c0.2,0,0.3,0,0.4,0c0.2,0,0.4,0,0.6,0l0.2,0C66.2,178.5,66.7,178.6,66.8,178.6 M66.8,177.1l0-0.5
		c-0.1,0-0.3,0-0.6,0l-0.6,0c-0.2,0-0.4,0-0.6-0.1l-0.4,0c-0.1,0-0.2,0-0.3,0l0,0.5c0.1,0,0.1,0,0.2,0l0.4,0c0.3,0,0.5,0.1,0.7,0.1
		l0.5,0C66.5,177.1,66.7,177.1,66.8,177.1 M66.8,175.6l0-0.5l-1.2,0c-0.2,0-0.4,0-0.6-0.1l-0.4,0c-0.1,0-0.2,0-0.2,0l0,0.5
		c0.1,0,0.1,0,0.2,0l0.4,0c0.3,0,0.5,0.1,0.7,0.1L66.8,175.6z M70.2,165.4l0-0.4h-5.3l0,0.4c0,0.9,0,3.1,0,3.2
		c0,0.4,0.3,0.8,0.8,1.1c0.6,0.4,1.6,1,1.6,1l0.2,0.1l0.2-0.1c0,0,1.1-0.6,1.7-1c0.5-0.3,0.8-0.7,0.8-1.1
		C70.2,168.5,70.2,167.4,70.2,165.4z M65.6,165.8h3.9l0,0.6h0v1.1l-1.9-1.4l0,0l0,0l-1.9,1.4v-1.1V165.8z M69.5,168.6
		c0,0.2-0.2,0.3-0.4,0.5c-0.4,0.3-1,0.6-1.4,0.9l0,0l0,0c-0.2-0.1-0.9-0.5-1.4-0.9c-0.3-0.2-0.5-0.4-0.5-0.5h0v-0.3l1.9-1.4l1.9,1.4
		L69.5,168.6L69.5,168.6z M61.6,165.4l0-0.4h-5.3l0,0.4c0,0.9,0,3.1,0,3.2c0,0.4,0.3,0.8,0.8,1.1c0.6,0.4,1.6,1,1.6,1l0.2,0.1
		l0.2-0.1c0,0,1.1-0.6,1.7-1c0.5-0.3,0.8-0.7,0.8-1.1C61.6,168.5,61.6,167.4,61.6,165.4z M60.9,165.8l0,1H57v-1H60.9z M60.9,168.6
		c0,0.2-0.2,0.3-0.4,0.5c-0.4,0.3-1,0.6-1.4,0.9l0,0l0,0c-0.2-0.1-0.9-0.5-1.4-0.9c-0.3-0.2-0.5-0.4-0.5-0.5c0-0.1,0-0.4,0-0.9v-0.2
		h3.9v0C60.9,167.9,60.9,168.5,60.9,168.6z M72.6,163.4l-18.9,0l0,12.7c0,7.1,8.9,11.2,9.3,11.4l0.2,0.1l0.2-0.1
		c0.4-0.2,9.2-4.4,9.2-11.2L72.6,163.4z M54.7,164.3l17,0l0,7h-17L54.7,164.3z M62.6,174c0.1,0,0.1,0,0.2,0.1v7.1l0,0
		c-0.2-0.1-0.3-0.1-0.5-0.1c-0.5,0-0.9,0-1.4,0.1c-0.4,0-0.9,0.1-1.5,0.1c-0.1,0-0.3,0-0.4,0c-0.1,0-0.2,0-0.3,0l-0.1,0l0-7h0.3
		c0.2,0,0.5,0,0.9,0c0.4,0,0.8-0.1,1.2-0.1c0.2,0,0.5-0.1,0.8-0.1c0.1,0,0.2,0,0.3,0C62.3,173.9,62.6,174,62.6,174L62.6,174
		L62.6,174z M63.6,174.1c0.1,0,0.1-0.1,0.2-0.1c0,0,0.3-0.1,0.6-0.1c0.1,0,0.2,0,0.3,0c0.3,0,0.5,0.1,0.8,0.1l0,0
		c0.4,0,0.8,0.1,1.2,0.1c0.3,0,0.6,0,0.8,0l0.1,0c0,0,0,0,0.1,0l0.1,0l0,7l-0.1,0c-0.1,0-0.2,0-0.3,0c-0.1,0-0.2,0-0.4,0
		c-0.6,0-1.1-0.1-1.5-0.1c-0.4,0-0.8-0.1-1.4-0.1h0c-0.2,0-0.3,0-0.5,0.1l0,0V174.1z M54.7,176l0-3.8h8.1l0,1.1l0,0
		c0,0-0.3-0.1-0.7-0.1c-0.1,0-0.3,0-0.4,0c-0.3,0-0.5,0.1-0.8,0.1l-0.1,0c-0.4,0-0.8,0.1-1.1,0.1c-0.3,0-0.6,0-0.8,0l-0.2,0
		c0,0,0,0,0,0c-0.2,0-0.3,0-0.5,0l-0.4,0l0,1.3H57v0.7h0.9v1.7H57v0.7h0.9v1.7H57v0.7h0.9l0,1.6l0.4,0c0,0,0.5,0,1.2,0
		c0.7,0,1.1-0.1,1.6-0.1c0.4,0,0.8-0.1,1.3-0.1c0.2,0,0.3,0.1,0.4,0.2c0,0,0.1,0.1,0.1,0.1l0,4.2C60.9,185.3,54.7,181.5,54.7,176z
		 M63.6,186.3l0-4.2c0,0,0.1-0.1,0.1-0.1c0.1-0.1,0.2-0.2,0.4-0.2c0.5,0,0.9,0,1.3,0.1c0.4,0,0.9,0.1,1.6,0.1c0.6,0,1.2,0,1.2,0
		l0.3,0l0-1.6h0.9v-0.7h-0.9v-1.7h0.9v-0.7h-0.9l0-1.7h0.9v-0.7h-0.9l0-1.3l-0.4,0c-0.1,0-0.3,0-0.5,0h-0.1c-0.2,0-0.5,0-0.9,0
		c-0.3,0-0.7,0-1.1-0.1l0,0c-0.2,0-0.5-0.1-0.8-0.1c-0.1,0-0.3,0-0.4,0c-0.4,0-0.7,0.1-0.7,0.1c0,0,0,0,0,0l0,0l0-1.1h8.1l0,4
		C71.7,181.5,65.5,185.3,63.6,186.3z M63.2,188.4c-8.2,0-14.8-6.7-14.8-14.8c0-8.2,6.7-14.8,14.8-14.8s14.8,6.7,14.8,14.8
		C78.1,181.8,71.4,188.4,63.2,188.4 M63.2,159.7c-7.7,0-13.9,6.2-13.9,13.9c0,7.7,6.2,13.9,13.9,13.9c7.7,0,13.9-6.2,13.9-13.9
		C77.1,165.9,70.9,159.7,63.2,159.7 M47.8,182.7c-0.1-0.1-0.2-0.3-0.3-0.5c-0.3-0.7-0.2-1.4,0.5-1.7c0.7-0.4,1.4-0.1,1.7,0.6
		c0.1,0.1,0.1,0.3,0.2,0.5l-0.4,0.2c0-0.2,0-0.4-0.1-0.5c-0.2-0.4-0.7-0.6-1.1-0.3c-0.4,0.2-0.6,0.7-0.4,1.1
		c0.1,0.2,0.2,0.4,0.3,0.4L47.8,182.7z M50.8,182.8c-0.4-0.6-1.1-0.7-1.7-0.2c-0.6,0.4-0.8,1.1-0.3,1.7c0.4,0.6,1.1,0.7,1.7,0.2
		C51.1,184.1,51.2,183.4,50.8,182.8 M49.1,184.1c-0.3-0.4,0-0.8,0.3-1.1c0.3-0.2,0.8-0.3,1.1,0.1c0.3,0.4,0,0.8-0.3,1.1
		C49.8,184.4,49.4,184.5,49.1,184.1 M50.1,185.9l0.3,0.3l0.7-0.7l0.1,0.1c0.1,0.1,0.1,0.2,0.1,0.4l-0.3,0.7l0.4,0.4l0.4-0.9
		c0-0.1,0.1-0.3,0-0.4l0,0c0.2,0.2,0.5,0.2,0.8,0c0.5-0.5,0-0.9-0.3-1.3l-0.4-0.4L50.1,185.9z M51.9,184.8l0.1,0.1
		c0.2,0.2,0.3,0.4,0.1,0.6c-0.2,0.2-0.4,0-0.6-0.1l-0.1-0.1L51.9,184.8z M51.9,187.7l0.4,0.3l1.1-1.5l0,0l-0.3,2l0.5,0.4l1.4-1.9
		l-0.4-0.3l-1.1,1.5l0,0l0.3-2l-0.5-0.4L51.9,187.7z M54.4,189.4l1.3,0.7l0.2-0.3l-0.8-0.4l0.3-0.6l0.8,0.4l0.2-0.3l-0.8-0.4
		l0.3-0.5l0.8,0.4l0.2-0.3l-1.3-0.7L54.4,189.4z M56.4,190.4l1.3,0.5l0.1-0.4l-0.9-0.3l0.7-1.9l-0.5-0.2L56.4,190.4z M58.4,191.1
		l1.4,0.3l0.1-0.4l-0.9-0.2l0.5-2l-0.5-0.1L58.4,191.1z M61.7,190.8c0,0.6,0.3,0.9,1,1c0.6,0,1-0.2,1-0.9l0.1-1.5l-0.5,0l-0.1,1.4
		c0,0.4-0.2,0.7-0.5,0.7c-0.4,0-0.5-0.3-0.5-0.7l0.1-1.4l-0.5,0L61.7,190.8z M64.6,191.7l0.5-0.1l-0.2-1.8l0,0l1.2,1.7l0.6-0.1
		l-0.3-2.4l-0.5,0.1l0.2,1.8l0,0l-1.1-1.7l-0.6,0.1L64.6,191.7z M67.4,191.3l0.5-0.1l-0.6-2.3l-0.5,0.1L67.4,191.3z M69.3,190.7
		l0.6-0.2l-0.1-2.6l-0.5,0.2l0.1,2l0,0l-1.2-1.6l-0.5,0.2L69.3,190.7z M71.3,189.9l1.3-0.7l-0.2-0.3l-0.8,0.5l-0.3-0.6l0.8-0.4
		l-0.2-0.3l-0.8,0.4l-0.3-0.5l0.8-0.5l-0.2-0.3l-1.3,0.7L71.3,189.9z M73.2,188.8l0.4-0.3l-0.6-0.8l0.1-0.1c0.2-0.1,0.3-0.1,0.4,0
		l0.7,0.4l0.4-0.3l-0.9-0.5c-0.1-0.1-0.2-0.1-0.4,0l0,0c0.2-0.2,0.2-0.5,0.1-0.7c-0.4-0.5-0.9-0.2-1.3,0.1l-0.4,0.3L73.2,188.8z
		 M72.4,186.8l0.1-0.1c0.2-0.1,0.4-0.3,0.6-0.1c0.2,0.2,0,0.4-0.2,0.6l-0.1,0.1L72.4,186.8z M74.6,184.5c-0.2,0.1-0.3,0.2-0.5,0.3
		c-0.3,0.3-0.5,0.7-0.1,1.1c0.6,0.6,1.2-0.3,1.5,0c0.2,0.2,0,0.4-0.1,0.5c-0.1,0.1-0.3,0.2-0.5,0.3l0.3,0.3c0.2-0.1,0.3-0.2,0.5-0.4
		c0.4-0.3,0.5-0.8,0.1-1.2c-0.6-0.6-1.2,0.3-1.5,0c-0.2-0.2-0.1-0.4,0-0.5c0.1-0.1,0.3-0.2,0.4-0.3L74.6,184.5z M76.8,185.6l0.3-0.4
		l-1.8-1.6l-0.3,0.4L76.8,185.6z M77.8,184.3l0.3-0.4l-1.7-1.2l0.4-0.6l-0.3-0.2l-1.1,1.5l0.3,0.2l0.4-0.6L77.8,184.3z M79.2,182.1
		l0.2-0.4l-0.9-0.4l-0.9-1.4l-0.2,0.5l0.6,1l-1.2,0.1l-0.3,0.5l1.7-0.1L79.2,182.1z M48.2,177.8l-0.1-0.6l-2.1,0l0,0l1.9-0.8
		l-0.1-0.6l-2.6-0.1l0.1,0.5l2.1,0.1l0,0l-1.9,0.8l0.1,0.7l2.1,0l0,0l-1.9,0.9l0.1,0.5L48.2,177.8z M47.6,174.7l0-1.5l-0.4,0l0,1
		l-0.7,0l0-0.9l-0.4,0l0,0.9l-0.6,0l0-1l-0.4,0l0,1.5L47.6,174.7z M45.1,172.6l2.5,0.2l0-0.5l-2.5-0.2L45.1,172.6z M47.7,171.8
		l0.2-1.5l-0.4-0.1l-0.2,1l-2.1-0.3l-0.1,0.5L47.7,171.8z M48,170l0.4-1.4l-0.4-0.1l-0.3,0.9l-2-0.6l-0.1,0.5L48,170z M49.3,165.6
		c0,0.1-0.1,0.4-0.2,0.5c-0.2,0.5-0.7,0.6-1.2,0.4c-0.5-0.2-0.7-0.7-0.4-1.2c0.1-0.2,0.2-0.3,0.4-0.4l-0.4-0.2
		c-0.1,0.1-0.3,0.3-0.3,0.5c-0.4,0.8-0.2,1.4,0.6,1.8c0.8,0.4,1.4,0.1,1.7-0.7c0.1-0.2,0.1-0.4,0.2-0.5L49.3,165.6z M48.5,163
		c-0.5,0.6-0.3,1.3,0.3,1.8c0.6,0.4,1.3,0.4,1.8-0.2c0.5-0.6,0.3-1.3-0.3-1.8C49.6,162.4,48.9,162.4,48.5,163 M50.3,164.3
		c-0.3,0.4-0.8,0.3-1.2,0c-0.4-0.3-0.6-0.7-0.3-1.1c0.3-0.4,0.8-0.3,1.1-0.1C50.3,163.5,50.6,163.9,50.3,164.3 M51.5,163.2l0.4-0.4
		l-0.7-0.7l0.1-0.1c0.2-0.2,0.2-0.1,0.4-0.1l0.8,0.3l0.4-0.4l-1-0.4c-0.1,0-0.3-0.1-0.4,0l0,0c0.2-0.3,0.2-0.6,0-0.8
		c-0.5-0.5-0.9,0-1.3,0.4l-0.4,0.4L51.5,163.2z M50.4,161.4l0.1-0.1c0.2-0.2,0.4-0.4,0.6-0.1c0.2,0.2,0,0.4-0.1,0.6l-0.1,0.1
		L50.4,161.4z M53.1,161.7l0.4-0.3l-1.1-1.5l0,0l1.9,0.9l0.5-0.4l-1.5-2l-0.4,0.3l1.1,1.5l0,0l-1.9-0.9l-0.5,0.4L53.1,161.7z
		 M55.2,160.2l1.3-0.7l-0.2-0.3l-0.9,0.5l-0.3-0.6l0.8-0.4l-0.2-0.3l-0.8,0.4l-0.3-0.5l0.9-0.5l-0.2-0.3l-1.3,0.7L55.2,160.2z
		 M57,159.3l1.4-0.5l-0.1-0.4l-0.9,0.4l-0.8-2l-0.5,0.2L57,159.3z M58.7,158.7l1.4-0.4l-0.1-0.4l-0.9,0.2l-0.5-2l-0.5,0.1
		L58.7,158.7z M61.4,158.1l0.5,0l-0.1-2.1l0,0l0.7,2.1l0.5,0l0.6-2.1h0l0.1,2.1l0.5,0l-0.1-2.5l-0.8,0l-0.5,1.9h0l-0.6-1.9l-0.8,0
		L61.4,158.1z M64.8,158.1l1.5,0.2l0.1-0.4l-1-0.1l0.1-0.7l0.9,0.1l0.1-0.4l-0.9-0.1l0.1-0.6l1,0.1l0.1-0.4l-1.5-0.2L64.8,158.1z
		 M66.7,158.4l0.7,0.2c0.7,0.2,1.5,0.2,1.7-0.8c0.3-1-0.3-1.4-1-1.6l-0.7-0.2L66.7,158.4z M67.8,156.5l0.3,0.1
		c0.4,0.1,0.7,0.5,0.5,1.1c-0.2,0.5-0.6,0.7-1,0.6l-0.3-0.1L67.8,156.5z M69.1,159.2l0.5,0.2l1-2.3l-0.5-0.2L69.1,159.2z
		 M71.9,160.1c-0.1,0-0.4-0.1-0.5-0.2c-0.5-0.3-0.6-0.8-0.3-1.2c0.3-0.5,0.7-0.6,1.2-0.4c0.2,0.1,0.3,0.2,0.4,0.4l0.2-0.4
		c-0.1-0.2-0.3-0.3-0.4-0.4c-0.7-0.4-1.4-0.2-1.9,0.5c-0.4,0.7-0.1,1.4,0.6,1.8c0.2,0.1,0.4,0.2,0.5,0.2L71.9,160.1z M71.8,160.5
		l0.4,0.3l0.5-0.3l0.8,0.6l-0.2,0.6l0.4,0.3l0.8-2.6l-0.4-0.3L71.8,160.5z M73.6,160.7l-0.6-0.4l0.9-0.6l0,0L73.6,160.7z M74,162.3
		l1,1.1l0.3-0.3l-0.7-0.7l1.5-1.5l-0.4-0.4L74,162.3z M77.2,165.6c-0.1-0.1-0.3-0.2-0.4-0.4c-0.3-0.4-0.1-0.9,0.3-1.2
		c0.4-0.3,0.9-0.2,1.2,0.2c0.1,0.1,0.2,0.3,0.2,0.5l0.4-0.2c0-0.2-0.1-0.4-0.2-0.5c-0.5-0.7-1.2-0.9-1.9-0.4
		c-0.7,0.5-0.7,1.2-0.3,1.8c0.1,0.2,0.2,0.3,0.4,0.4L77.2,165.6z M79.8,166.2c-0.3-0.7-1-0.9-1.7-0.6c-0.7,0.3-1,0.9-0.7,1.7
		c0.3,0.7,1,0.9,1.7,0.6C79.8,167.5,80.1,166.9,79.8,166.2 M77.8,167.1c-0.2-0.5,0.1-0.8,0.5-1c0.4-0.2,0.9-0.2,1.1,0.3
		c0.2,0.5-0.1,0.8-0.5,1C78.5,167.5,78,167.5,77.8,167.1 M78.1,168.8l0.4,1.4l0.4-0.1l-0.3-0.9l2-0.6l-0.1-0.5L78.1,168.8z
		 M78.5,170.5l0.2,1.5l0.4-0.1l-0.2-1l2.1-0.3l-0.1-0.5L78.5,170.5z M78.8,172.3l0.1,1.5l0.4,0l0-1l0.7,0l0,0.9l0.4,0l0-0.9l0.6,0
		l0,1l0.4,0l-0.1-1.5L78.8,172.3z M81.1,176.5c0.1-0.2,0.1-0.4,0.2-0.7c0.1-0.8-0.3-1.4-1.2-1.5c-0.8-0.1-1.3,0.4-1.4,1.2
		c0,0.3,0,0.5,0,0.8l1.3,0.1l0.1-1l-0.4,0l-0.1,0.5l-0.7-0.1c0-0.1,0-0.2,0-0.3c0.1-0.5,0.5-0.8,1-0.8c0.5,0.1,0.9,0.4,0.8,1
		c0,0.2-0.1,0.4-0.2,0.6L81.1,176.5z M78.5,176.8l-0.4,1.4l0.4,0.1l0.2-1l0.7,0.2l-0.2,0.9l0.4,0.1l0.2-0.9l0.6,0.2l-0.2,0.9
		l0.4,0.1l0.4-1.4L78.5,176.8z M63.2,193.5c-11,0-19.9-8.9-19.9-19.9c0-11,8.9-19.9,19.9-19.9c11,0,19.9,8.9,19.9,19.9
		C83.1,184.6,74.2,193.5,63.2,193.5z M63.2,154.6c-10.5,0-19,8.5-19,19c0,10.5,8.5,19,19,19c10.5,0,19-8.5,19-19
		C82.2,163.1,73.7,154.6,63.2,154.6z"/>
</g>
<g>
	<path class="st0" d="M23.1,178l-0.1,0.5c0,0.1,0,0.1-0.1,0.1h-1c-0.1,0-0.1,0-0.1-0.1l-0.8-2.3h-4.9l-0.9,2.3c0,0,0,0.1-0.1,0.1h-1
		c-0.1,0-0.1,0-0.1-0.1L14,178l3.8-9.8c0-0.1,0-0.1,0.1-0.1h1.5c0.1,0,0.1,0,0.1,0.1L23.1,178z M20.5,175.1l-2-5.4l-2.1,5.4H20.5z"
		/>
	<path class="st0" d="M25.3,178.5v-9.2h-3.1c-0.1,0-0.1,0-0.1-0.1v-1c0-0.1,0-0.1,0.1-0.1h7.5c0.1,0,0.1,0,0.1,0.1v1
		c0,0.1,0,0.1-0.1,0.1h-3.1v9.2c0,0.1,0,0.1-0.1,0.1L25.3,178.5C25.3,178.6,25.3,178.6,25.3,178.5z"/>
</g>
</svg>
